<svg width="39" height="44" viewBox="0 0 39 44" fill="none" xmlns="http://www.w3.org/2000/svg">
<path d="M16.0411 1.22361C10.5023 2.74464 5.99658 4.75355 2.61014 7.22163C0.0846657 9.05834 -0.144923 9.68971 0.0559671 14.3963C0.314255 20.7674 2.49535 27.4829 5.99658 32.6199C7.51761 34.8584 10.7893 38.3309 12.913 39.9668C14.9793 41.5452 18.5666 43.5254 19.4275 43.5254C20.3172 43.5254 23.5888 41.8322 25.6551 40.2824C27.8362 38.6466 30.1034 36.4655 30.1034 35.9777C30.1034 35.7768 29.6442 35.1741 29.099 34.6288L28.0945 33.6531L26.5735 35.1167C24.6507 36.9821 22.6418 38.5031 20.8625 39.3928L19.4562 40.1103L17.8204 39.1919C10.0718 34.8297 4.67645 26.134 3.41371 15.9747C2.89713 11.7847 2.95453 11.4403 4.33206 10.1776C6.19747 8.45567 11.8511 5.81539 15.8689 4.78224C19.5423 3.83519 19.8006 3.83519 23.5027 4.83964C27.6927 5.95889 32.6289 8.31218 34.8674 10.2924C35.7571 11.0672 35.8432 11.2968 35.8432 12.6744C35.8432 16.5487 34.6952 21.7144 32.9733 25.8183L31.8827 28.3151L33.0594 29.2909C33.7195 29.8361 34.3508 30.2092 34.4943 30.1231C34.9248 29.8648 36.5893 26.0192 37.3642 23.5224C38.4834 19.9925 39 16.7783 39 13.277C39 9.43142 38.7704 8.91485 36.0153 6.96334C33.2316 4.98313 30.1321 3.49081 26.0856 2.17067C21.8669 0.793135 18.6814 0.47745 16.0411 1.22361Z" fill="#0B1D51"/>
<path d="M17.7659 5.9585C12.715 7.30734 9.47204 8.65617 6.37259 10.7225C4.93766 11.6695 4.85156 11.7843 4.85156 12.961C4.85156 20.9679 9.41464 30.8402 15.2692 35.4033C17.0198 36.8095 18.9713 38.0723 19.3157 38.0723C19.4018 38.0723 19.4879 36.7234 19.4879 35.0876V32.1316L21.1524 31.9308C22.1568 31.816 23.5631 31.3568 24.711 30.7828L26.6051 29.8358L29.8481 33.0787C32.6605 35.8912 33.2345 36.3503 34.0381 36.3503C35.0999 36.3503 35.7026 35.5468 35.4156 34.5423C35.3008 34.198 33.7798 32.476 32.0579 30.7254L28.901 27.5112L29.7907 25.7032C33.378 18.4137 28.901 10.005 20.9228 9.00055C20.2053 8.91446 19.6027 8.82836 19.574 8.82836C19.5166 8.79966 19.4879 8.0822 19.4879 7.22124C19.4879 5.52802 19.4879 5.49932 17.7659 5.9585ZM22.4725 12.8175C25.7442 14.0515 27.667 16.8927 27.667 20.5661C27.667 22.9194 27.1217 24.2682 25.4859 26.1336C23.3048 28.6304 18.9139 29.4053 15.8144 27.8556C12.9446 26.4206 11.3375 23.7516 11.3375 20.4226C11.3662 14.6542 17.0198 10.7799 22.4725 12.8175Z" fill="#F28500"/>
<path d="M18.8589 17.3244L18.5 17.0859H22.6255L22.9054 17.2075L18.8589 17.3244Z" fill="url(#paint0_linear_348_2677)"/>
<path d="M20.7096 20.729L20.4297 20.6074H22.8671L23.147 20.729H20.7096Z" fill="url(#paint1_linear_348_2677)"/>
<path d="M17.9205 26.3583L17.6406 26.2367L18.795 22.4141L19.0749 22.5357L17.9205 26.3583Z" fill="url(#paint2_linear_348_2677)"/>
<path d="M17.4752 22.5353L17.1953 22.4137L18.5054 17.0859L18.9069 17.2604L17.4752 22.5353Z" fill="url(#paint3_linear_348_2677)"/>
<path d="M23.1457 20.7307L17.9221 26.3593L19.0765 22.5367H17.4766L18.7866 17.209H22.9122L20.7083 20.7307H23.1457Z" fill="url(#paint4_linear_348_2677)"/>
<defs>
<linearGradient id="paint0_linear_348_2677" x1="18.5" y1="17.2052" x2="22.9054" y2="17.2052" gradientUnits="userSpaceOnUse">
<stop stop-color="#F28500"/>
<stop offset="1" stop-color="#FDA50D"/>
</linearGradient>
<linearGradient id="paint1_linear_348_2677" x1="20.4297" y1="20.6682" x2="23.147" y2="20.6682" gradientUnits="userSpaceOnUse">
<stop stop-color="#F28500"/>
<stop offset="1" stop-color="#FDA50D"/>
</linearGradient>
<linearGradient id="paint2_linear_348_2677" x1="18.3865" y1="24.3954" x2="18.1288" y2="24.3129" gradientUnits="userSpaceOnUse">
<stop stop-color="#F28500"/>
<stop offset="1" stop-color="#FDA50D"/>
</linearGradient>
<linearGradient id="paint3_linear_348_2677" x1="17.1953" y1="19.8106" x2="18.9069" y2="19.8106" gradientUnits="userSpaceOnUse">
<stop stop-color="#F28500"/>
<stop offset="1" stop-color="#FDA50D"/>
</linearGradient>
<linearGradient id="paint4_linear_348_2677" x1="20.3111" y1="17.5883" x2="20.3111" y2="24.9818" gradientUnits="userSpaceOnUse">
<stop stop-color="#F28500"/>
<stop offset="1" stop-color="#FDA50D"/>
</linearGradient>
</defs>
</svg>
