<svg width="64" height="70" viewBox="0 0 64 70" fill="none" xmlns="http://www.w3.org/2000/svg">
<path d="M26.1404 0.641789C17.1143 3.12043 9.77195 6.39412 4.25346 10.4161C0.13797 13.4091 -0.236165 14.438 0.0912033 22.1078C0.512105 32.49 4.06639 43.4335 9.77195 51.8048C12.2506 55.4526 17.582 61.1114 21.0428 63.7771C24.41 66.3493 30.2558 69.5762 31.6588 69.5762C33.1086 69.5762 38.44 66.8169 41.8073 64.2915C45.3615 61.6258 49.0561 58.0715 49.0561 57.2765C49.0561 56.9491 48.3079 55.967 47.4193 55.0784L45.7824 53.4884L43.3038 55.8735C40.1704 58.9133 36.8967 61.392 33.9972 62.8417L31.7056 64.0109L29.0399 62.5144C16.4128 55.4058 7.62067 41.2354 5.56293 24.68C4.72112 17.852 4.81466 17.2908 7.05947 15.2331C10.0993 12.427 19.3124 8.12449 25.8598 6.44088C31.8459 4.89758 32.2668 4.89758 38.2997 6.53442C45.1277 8.35832 53.1716 12.1932 56.8194 15.4201C58.2692 16.6828 58.4095 17.057 58.4095 19.3018C58.4095 25.6153 56.5388 34.0333 53.7328 40.721L51.9557 44.7897L53.8731 46.3798C54.9488 47.2684 55.9776 47.8763 56.2115 47.736C56.913 47.3151 59.6254 41.0484 60.8881 36.9797C62.7121 31.2273 63.5539 25.9894 63.5539 20.2839C63.5539 14.0171 63.1797 13.1753 58.6901 9.99517C54.1537 6.76825 49.1029 4.33637 42.5088 2.1851C35.634 -0.0597138 30.4429 -0.574149 26.1404 0.641789Z" fill="#D9D9D9"/>
<path d="M28.9435 8.35731C20.7126 10.5554 15.4279 12.7534 10.3771 16.1206C8.03874 17.6639 7.89844 17.851 7.89844 19.7684C7.89844 32.8164 15.3344 48.9042 24.8748 56.3401C27.7276 58.6317 30.9077 60.6895 31.4689 60.6895C31.6092 60.6895 31.7495 58.4914 31.7495 55.8257V51.0087L34.462 50.6813C36.0989 50.4943 38.3904 49.746 40.2611 48.8107L43.3477 47.2674L48.6324 52.552C53.2155 57.1352 54.1509 57.8834 55.4604 57.8834C57.1907 57.8834 58.1728 56.574 57.7052 54.9371C57.5181 54.3759 55.0395 51.5699 52.2334 48.7171L47.0891 43.4792L48.5389 40.5329C54.3847 28.6541 47.0891 14.9514 34.0879 13.3146C32.9187 13.1743 31.9366 13.034 31.8898 13.034C31.7963 12.9872 31.7495 11.8181 31.7495 10.4151C31.7495 7.65581 31.7495 7.60904 28.9435 8.35731ZM36.6133 19.5346C41.9447 21.5456 45.0781 26.1755 45.0781 32.1617C45.0781 35.9965 44.1895 38.1946 41.5238 41.2344C37.9695 45.3031 30.8142 46.5659 25.7634 44.0404C21.0867 41.7021 18.4678 37.3528 18.4678 31.9278C18.5145 22.5277 27.7276 16.2141 36.6133 19.5346Z" fill="#D9D9D9"/>
<path d="M30.7255 26.8769L30.1406 26.4883H36.8635L37.3197 26.6865L30.7255 26.8769Z" fill="url(#paint0_linear_342_2620)"/>
<path d="M33.7296 32.4267L33.2734 32.2285H37.2454L37.7016 32.4267H33.7296Z" fill="url(#paint1_linear_342_2620)"/>
<path d="M29.1905 41.5993L28.7344 41.4012L30.6155 35.1719L31.0717 35.37L29.1905 41.5993Z" fill="#D9D9D9"/>
<path d="M28.4639 35.3684L28.0078 35.1703L30.1427 26.4883L30.797 26.7726L28.4639 35.3684Z" fill="#D9D9D9"/>
<path d="M37.6993 32.4264L29.1869 41.5988L31.0681 35.3695H28.4609L30.5958 26.6875H37.3187L33.7273 32.4264H37.6993Z" fill="url(#paint2_linear_342_2620)"/>
<defs>
<linearGradient id="paint0_linear_342_2620" x1="30.1406" y1="26.6826" x2="37.3197" y2="26.6826" gradientUnits="userSpaceOnUse">
<stop stop-color="#D9D9D9"/>
<stop offset="1" stop-color="#D9D9D9"/>
</linearGradient>
<linearGradient id="paint1_linear_342_2620" x1="33.2734" y1="32.3276" x2="37.7016" y2="32.3276" gradientUnits="userSpaceOnUse">
<stop stop-color="#D9D9D9"/>
<stop offset="1" stop-color="#D9D9D9"/>
</linearGradient>
<linearGradient id="paint2_linear_342_2620" x1="33.0801" y1="27.3056" x2="33.0801" y2="39.354" gradientUnits="userSpaceOnUse">
<stop stop-color="#D9D9D9"/>
<stop offset="1" stop-color="#D9D9D9"/>
</linearGradient>
</defs>
</svg>
