<svg xmlns="http://www.w3.org/2000/svg" width="256" height="256" fill="none" xmlns:v="https://vecta.io/nano"><rect width="256" height="256" rx="4" fill="url(#A)"/><path d="M26.537 185.909c2.728 0 4.092-1.011 4.092-3.034 0-.823-.212-1.47-.635-1.94-.4-.47-1.152-.882-2.258-1.235l-2.893-.952c-3.457-1.129-5.185-3.398-5.185-6.808 0-1.976.611-3.598 1.834-4.868 1.246-1.294 3.186-1.941 5.82-1.941a14.04 14.04 0 0 1 3.281.389c1.082.235 2.234.623 3.457 1.164l-1.305 3.633c-1.129-.447-2.093-.764-2.893-.952a9.06 9.06 0 0 0-2.399-.318c-1.082 0-1.94.2-2.575.6-.611.376-.917 1.07-.917 2.081 0 .753.212 1.376.635 1.87.447.47 1.176.87 2.187 1.199l2.893.952c1.74.588 3.045 1.447 3.916 2.576.894 1.105 1.34 2.575 1.34 4.409 0 2.116-.67 3.833-2.011 5.15-1.34 1.294-3.445 1.94-6.314 1.94-1.129 0-2.305-.129-3.527-.388-1.199-.282-2.516-.752-3.951-1.411l1.305-3.633c1.317.564 2.434.964 3.351 1.199a12.5 12.5 0 0 0 2.752.318zm26.936-.494v4.057H39.574v-23.988H53.12v4.057h-9.313v5.75h8.254v4.056h-8.254v6.068h9.665zm21.981-10.477v5.044c0 3.058-.764 5.468-2.293 7.232-1.529 1.74-3.763 2.61-6.702 2.61-2.963 0-5.209-.87-6.738-2.61-1.505-1.764-2.258-4.174-2.258-7.232v-5.044c0-3.057.753-5.456 2.258-7.196 1.529-1.74 3.774-2.611 6.738-2.611 2.94 0 5.174.871 6.702 2.611s2.293 4.139 2.293 7.196zm-4.339 0c0-1.928-.376-3.375-1.129-4.339-.752-.988-1.928-1.481-3.528-1.481s-2.775.493-3.528 1.481c-.753.964-1.129 2.411-1.129 4.339v5.044c0 1.929.376 3.387 1.129 4.375s1.928 1.481 3.528 1.481 2.775-.494 3.528-1.481 1.129-2.446 1.129-4.375v-5.044zm21.23 5.715v8.819h-4.233v-23.988h8.007c2.422 0 4.281.623 5.574 1.87 1.317 1.223 1.975 2.869 1.975 4.938v1.517c0 1.364-.294 2.564-.881 3.598s-1.435 1.823-2.54 2.364c1.928 3.292 3.574 6.526 4.938 9.701h-4.832c-1.176-2.94-2.576-5.88-4.198-8.819h-3.81zm3.774-11.288h-3.774v7.407h3.774c1.035 0 1.823-.258 2.364-.776.564-.541.847-1.27.847-2.187v-1.517c0-.893-.282-1.599-.847-2.116-.541-.541-1.329-.811-2.364-.811zm26.541 19.084c-1.223.493-2.375.846-3.457 1.058s-2.105.317-3.069.317c-2.658 0-4.668-.752-6.032-2.257s-2.046-3.504-2.046-5.997v-2.117c0-1.669.305-3.116.917-4.339a6.83 6.83 0 0 1 2.61-2.857c1.129-.682 2.458-1.023 3.986-1.023 1.247 0 2.411.259 3.493.776 1.105.494 1.999 1.282 2.681 2.364.705 1.058 1.058 2.422 1.058 4.092a12.75 12.75 0 0 1-.106 1.587c-.07.541-.188 1.117-.353 1.729h-10.371c.047 1.458.412 2.551 1.094 3.28s1.775 1.094 3.281 1.094c.799 0 1.622-.094 2.469-.283.87-.188 1.764-.47 2.681-.846l1.164 3.422zm-7.091-13.793c-1.081 0-1.928.353-2.539 1.058-.588.682-.929 1.67-1.023 2.963h6.773c.023-.117.035-.223.035-.317v-.318c0-1.129-.318-1.975-.953-2.54s-1.399-.846-2.293-.846zm19.56 15.168a9.48 9.48 0 0 1-1.799-.176 13.73 13.73 0 0 1-1.799-.494v7.831h-4.057v-25.398h3.845v2.434c1.106-1.105 2.046-1.846 2.822-2.222s1.588-.565 2.434-.565c1.952 0 3.457.729 4.516 2.187s1.587 3.504 1.587 6.138v1.905c0 2.563-.647 4.598-1.94 6.103s-3.163 2.257-5.609 2.257zm.353-14.815c-.541 0-1.117.164-1.729.493-.588.306-1.328.906-2.222 1.8v8.183c1.152.471 2.211.706 3.175.706 1.364 0 2.34-.423 2.928-1.27s.882-1.999.882-3.457v-1.905c0-1.575-.271-2.728-.812-3.457-.517-.729-1.258-1.093-2.222-1.093zm25.449 14.639c-1.199 0-2.163-.247-2.892-.741-.706-.494-1.223-1.105-1.552-1.834-1.011.941-1.987 1.634-2.928 2.081a6.98 6.98 0 0 1-3.034.67c-1.575 0-2.739-.505-3.492-1.517-.729-1.011-1.094-2.292-1.094-3.845 0-1.034.189-1.94.565-2.716.4-.799 1.046-1.423 1.94-1.869s2.117-.671 3.669-.671c.611 0 1.246.047 1.905.141.658.071 1.316.165 1.975.283v-2.082c0-.987-.271-1.657-.811-2.01-.541-.377-1.27-.565-2.187-.565-.706 0-1.482.094-2.329.283-.823.188-1.716.482-2.681.881l-1.164-3.457c2.376-.964 4.527-1.446 6.456-1.446 1.74 0 3.08.294 4.021.882.964.588 1.635 1.364 2.011 2.328s.564 1.999.564 3.104v6.879c0 .353.094.694.282 1.023.212.306.612.459 1.2.459h.388v3.739h-.812zm-11.076-5.256c0 .635.141 1.14.423 1.517.283.352.694.529 1.235.529s1.152-.141 1.834-.423 1.564-.941 2.646-1.976v-1.517a21.14 21.14 0 0 0-3.598-.317c-.917 0-1.576.188-1.976.564-.376.376-.564.917-.564 1.623zm19.572-16.192h-4.268v-4.197h4.268v4.197zm-.106 21.272h-4.056v-17.885h4.056v17.885zm15.678-14.181c-1.105 0-2.164.176-3.175.529-.988.329-1.94.87-2.857 1.623v12.029h-4.057v-17.885h3.845v2.751c1.2-1.128 2.27-1.928 3.21-2.398s1.952-.706 3.034-.706v4.057zm23.878 14.181l-5.996-10.477-1.235 1.34-1.27 1.376v7.761h-4.233v-23.988h4.233v11.394c1.787-2.046 3.316-3.986 4.586-5.82 1.27-1.858 2.363-3.716 3.28-5.574h4.622c-1.012 2.023-2.093 3.939-3.246 5.75a47.36 47.36 0 0 1-3.598 4.974l7.972 13.264h-5.115zm12.637-21.272h-4.269v-4.197h4.269v4.197zm-.106 21.272h-4.057v-17.885h4.057v17.885zm16.348-.6c-.612.282-1.317.505-2.117.67-.799.188-1.611.282-2.434.282-1.364 0-2.457-.282-3.28-.846s-1.423-1.353-1.8-2.364c-.352-1.011-.529-2.163-.529-3.457v-8.043h-2.892v-3.527h2.892v-4.656h4.057v4.656h5.574v3.527h-5.574v8.043c0 1.082.2 1.835.6 2.258.423.4 1.023.6 1.799.6.376 0 .776-.036 1.199-.106.447-.094.941-.247 1.482-.459l1.023 3.422zm-117.2-129.977c-12.333 3.463-22.366 8.037-29.906 13.657-5.624 4.182-6.135 5.62-5.687 16.336.575 14.506 5.432 29.796 13.228 41.493 3.387 5.097 10.672 13.003 15.401 16.728 4.601 3.593 12.589 8.102 14.506 8.102 1.981 0 9.266-3.855 13.867-7.384 4.857-3.725 9.905-8.691 9.905-9.801 0-.458-1.023-1.83-2.237-3.071l-2.236-2.222-3.387 3.332c-4.282 4.248-8.755 7.711-12.717 9.736l-3.131 1.634-3.643-2.091c-17.253-9.932-29.267-29.731-32.079-52.862-1.15-9.54-1.022-10.324 2.045-13.199 4.154-3.92 16.743-9.932 25.689-12.284 8.18-2.156 8.755-2.156 16.998.131 9.33 2.548 20.321 7.906 25.306 12.415 1.981 1.764 2.173 2.287 2.173 5.423 0 8.821-2.557 20.583-6.391 29.927l-2.428 5.684 2.62 2.222c1.47 1.241 2.875 2.091 3.195 1.895.959-.588 4.665-9.344 6.391-15.029 2.492-8.037 3.642-15.355 3.642-23.327 0-8.756-.512-9.932-6.646-14.375-6.199-4.509-13.1-7.907-22.111-10.912-9.393-3.136-16.487-3.855-22.366-2.156zm3.831 11.79c-11.247 3.071-18.468 6.142-25.369 10.847-3.195 2.156-3.387 2.418-3.387 5.097 0 18.23 10.16 40.708 23.197 51.097 3.898 3.202 8.243 6.077 9.01 6.077.192 0 .383-3.071.383-6.796v-6.73l3.707-.457c2.236-.262 5.368-1.307 7.924-2.614l4.217-2.156 7.221 7.383c6.263 6.404 7.541 7.45 9.33 7.45 2.365 0 3.706-1.83 3.068-4.117-.256-.784-3.643-4.705-7.477-8.691l-7.029-7.318 1.98-4.116c7.988-16.597-1.98-35.743-19.746-38.03l-3.003-.392c-.128-.065-.192-1.699-.192-3.659 0-3.855 0-3.92-3.834-2.875zm10.48 15.617c7.285 2.81 11.567 9.279 11.567 17.642 0 5.358-1.214 8.429-4.857 12.677-4.857 5.684-14.634 7.449-21.535 3.92-6.391-3.267-9.969-9.344-9.969-16.923.064-13.134 12.653-21.955 24.794-17.316z" fill="#fff"/><path d="M121.629 108.445l-.588-.256 2.754-11.201.845.367-3.011 11.09z" fill="url(#B)"/><path d="M133.546 104.649l-10.982 11.833 2.427-8.036h-3.364l2.754-11.201h8.674l-4.634 7.404h5.125z" fill="url(#C)"/><defs><linearGradient id="A" x1="0" y1="256" x2="256" y2="18" gradientUnits="userSpaceOnUse"><stop stop-color="#0b1d51"/></linearGradient><linearGradient id="B" x1="121.041" y1="102.717" x2="124.64" y2="102.717" gradientUnits="userSpaceOnUse"><stop stop-color="#f28500"/><stop offset="1" stop-color="#fff"/></linearGradient><linearGradient id="C" x1="127.586" y1="98.042" x2="127.586" y2="113.586" gradientUnits="userSpaceOnUse"><stop stop-color="#fff"/><stop offset="1" stop-color="#f28500"/></linearGradient></defs></svg>